<?xml version="1.0" encoding="utf-8"?>
<!-- Generator: Adobe Illustrator 20.1.0, SVG Export Plug-In . SVG Version: 6.00 Build 0)  -->
<svg version="1.1" id="Layer_1" xmlns="http://www.w3.org/2000/svg" xmlns:xlink="http://www.w3.org/1999/xlink" x="0px" y="0px"
	 width="1000px" height="1000px" viewBox="0 0 1000 1000" style="enable-background:new 0 0 1000 1000;" xml:space="preserve">
<g>
	<g>
		
			<linearGradient id="SVGID_1_" gradientUnits="userSpaceOnUse" x1="-7167.0269" y1="1249.0713" x2="-7167.0269" y2="1420.6711" gradientTransform="matrix(-1.143 0.1564 0.1247 0.9113 -7984.4077 57.8265)">
			<stop  offset="0" style="stop-color:#8EC944"/>
			<stop  offset="0.1956" style="stop-color:#89C345"/>
			<stop  offset="0.444" style="stop-color:#7BB446"/>
			<stop  offset="0.7209" style="stop-color:#639A49"/>
			<stop  offset="1" style="stop-color:#45784C"/>
		</linearGradient>
		<path style="fill:url(#SVGID_1_);" d="M284.6,83.5c49.5-4,94.4-7.5,129.4,8.5c34.8,14.6,59.5,46.8,63.8,77.9l5.4,39.6
			c0.1,0.9,1.1,6.1,0.4,6c-10.4-1.5-26-0.4-35.8,0.8c-45.2,6.2-86.5,8.7-118.7-6.2c-32.1-13.9-54.7-43.4-58.7-72
			c-2.5-18.1-5-36.3-7.4-54.4C270.2,83.9,277.4,83.9,284.6,83.5z"/>
		<defs>
			<filter id="Adobe_OpacityMaskFilter" filterUnits="userSpaceOnUse" x="262.9" y="83.5" width="221.3" height="144.6">
				<feColorMatrix  type="matrix" values="1 0 0 0 0  0 1 0 0 0  0 0 1 0 0  0 0 0 1 0"/>
			</filter>
		</defs>
		<mask maskUnits="userSpaceOnUse" x="262.9" y="83.5" width="221.3" height="144.6" id="SVGID_2_">
			<g style="filter:url(#Adobe_OpacityMaskFilter);">
				<path style="fill:#FFFFFF;" d="M483.8,215c-2.1-15-4-30.1-6.1-45.2c-4.3-31.1-29-63.3-63.8-77.9c-35-16-79.8-12.5-129.4-8.5
					c-7.2,0.4-14.4,0.4-21.7,0c2.5,18.1,6.8,36,9.2,54.2c3.9,28.6,27.2,55.5,59.2,69.4c32.2,15,71,13.9,116.1,7.7
					C459.4,213.4,477.2,210.3,483.8,215z"/>
			</g>
		</mask>
		
			<linearGradient id="SVGID_3_" gradientUnits="userSpaceOnUse" x1="-7039.0313" y1="1261.5439" x2="-7213.5752" y2="1413.0229" gradientTransform="matrix(-1.143 0.1564 0.1247 0.9113 -7984.4077 57.8265)">
			<stop  offset="0" style="stop-color:#78BF44"/>
			<stop  offset="0.3091" style="stop-color:#6CB646"/>
			<stop  offset="0.8593" style="stop-color:#4E9D4B"/>
			<stop  offset="1" style="stop-color:#45964C"/>
		</linearGradient>
		<path style="opacity:0.7;mask:url(#SVGID_2_);fill:url(#SVGID_3_);" d="M484.2,214.9c-7.7-56.1-221.3-131.4-221.3-131.4l4.9,80.4
			l53.4,50.6l65.7,13.7L484.2,214.9z"/>
	</g>
	<g>
		<defs>
			<filter id="Adobe_OpacityMaskFilter_1_" filterUnits="userSpaceOnUse" x="190.2" y="783.7" width="619.5" height="136.2">
				<feColorMatrix  type="matrix" values="1 0 0 0 0  0 1 0 0 0  0 0 1 0 0  0 0 0 1 0"/>
			</filter>
		</defs>
		<mask maskUnits="userSpaceOnUse" x="190.2" y="783.7" width="619.5" height="136.2" id="SVGID_4_">
			<g style="filter:url(#Adobe_OpacityMaskFilter_1_);">
				
					<radialGradient id="SVGID_5_" cx="-1444.7196" cy="-1249.5282" r="211.7539" gradientTransform="matrix(1.4628 0 0 0.3216 2613.3359 1253.6375)" gradientUnits="userSpaceOnUse">
					<stop  offset="0" style="stop-color:#666666"/>
					<stop  offset="0.1333" style="stop-color:#575757"/>
					<stop  offset="0.7212" style="stop-color:#181818"/>
					<stop  offset="1" style="stop-color:#000000"/>
				</radialGradient>
				<ellipse style="fill:url(#SVGID_5_);" cx="500" cy="851.8" rx="309.8" ry="68.1"/>
			</g>
		</mask>
		<ellipse style="opacity:0.7;mask:url(#SVGID_4_);" cx="500" cy="851.8" rx="309.8" ry="68.1"/>
		<radialGradient id="SVGID_6_" cx="246.8507" cy="301.4238" r="570.5643" gradientUnits="userSpaceOnUse">
			<stop  offset="0" style="stop-color:#8CD23F"/>
			<stop  offset="0.2017" style="stop-color:#87D040"/>
			<stop  offset="0.4334" style="stop-color:#79C941"/>
			<stop  offset="0.6799" style="stop-color:#62BE45"/>
			<stop  offset="0.9352" style="stop-color:#42AF49"/>
			<stop  offset="1" style="stop-color:#39AA4A"/>
		</radialGradient>
		<path style="fill:url(#SVGID_6_);" d="M796.8,396c-17.3-138.9-138.7-195.8-260.6-141.7c-23.9,10.6-51.2,10.6-75.1,0
			c-121.9-54.1-243.3,2.7-260.6,141.7C177.3,582,316,826.5,475.6,765.4c14.8-5.7,31.1-5.7,46,0C681.2,826.5,820,582,796.8,396z"/>
	</g>
	
		<ellipse transform="matrix(0.7071 -0.7071 0.7071 0.7071 -139.8039 301.3542)" style="opacity:0.4;fill:#FFFFFF;" cx="293.9" cy="319.4" rx="63.3" ry="31.1"/>
	<linearGradient id="SVGID_7_" gradientUnits="userSpaceOnUse" x1="489.4251" y1="255.4174" x2="558.2196" y2="148.6193">
		<stop  offset="0" style="stop-color:#804F1B"/>
		<stop  offset="2.289426e-02" style="stop-color:#814F1B"/>
		<stop  offset="1" style="stop-color:#995818"/>
	</linearGradient>
	<path style="fill:url(#SVGID_7_);" d="M504,258.2c0.5,0,0.9-0.5,0.9-1c-0.4-15,3.3-29.8,10.2-43.9c10-20.2,26.7-30.8,47.5-38.3
		c7-2.5,10.4-10.5,7.2-17.2c-3.6-7.7-11.2-10.8-15.1-9.4c-26.4,8.9-43.6,31.7-56,56.7c-8.1,16.3-11.1,34.2-9.7,52.1
		c0,0.5,0.4,0.8,0.9,0.9C494.6,258.4,499.3,258.5,504,258.2z"/>
</g>
</svg>
