<?xml version="1.0" encoding="iso-8859-1"?>
<!-- Generator: Adobe Illustrator 18.1.1, SVG Export Plug-In . SVG Version: 6.00 Build 0)  -->
<svg version="1.1" id="Capa_1" xmlns="http://www.w3.org/2000/svg" xmlns:xlink="http://www.w3.org/1999/xlink" x="0px" y="0px"
	 viewBox="0 0 25.691 25.691" style="enable-background:new 0 0 25.691 25.691;" xml:space="preserve">
<g>
	<path style="fill:#030104;" d="M24.839,14.991c1.614,1.665,1.204,4.715-3.591,5.736c0-2.101-3.689-2.916-8.379-2.916
		c-5.028,0-8.594,0.773-8.594,2.974c-4.811-0.992-5.087-4.37-3.156-6.059c2.35-2.056,3.309,1.362,11.714,1.362
		C20.491,16.088,22.262,12.333,24.839,14.991z"/>
	<g>
		<path style="fill:#030104;" d="M12.847,14.891c3.799,0,8.005-1.887,8.005-1.887V11.56c0-3.307-2.087-6.653-7.999-6.653
			c-6.187,0-8.001,3.449-8.001,6.653v1.513C4.852,13.073,9.212,14.891,12.847,14.891z"/>
	</g>
</g>
<g>
</g>
<g>
</g>
<g>
</g>
<g>
</g>
<g>
</g>
<g>
</g>
<g>
</g>
<g>
</g>
<g>
</g>
<g>
</g>
<g>
</g>
<g>
</g>
<g>
</g>
<g>
</g>
<g>
</g>
</svg>
